<svg viewBox="0 0 144 241" xmlns="http://www.w3.org/2000/svg">
	<path d="M64.0,189.0l18.0,0.0" style="fill:none;stroke:rgb(192, 192, 192);stroke-width:4;stroke-linecap:round;" />
	<path d="M64.0,154.0l18.0,0.0" style="fill:none;stroke:rgb(192, 192, 192);stroke-width:4;stroke-linecap:round;" />
	<path d="M64.0,224.0l18.0,0.0" style="fill:none;stroke:rgb(192, 192, 192);stroke-width:4;stroke-linecap:round;" />
	<path d="M64.0,119.0l18.0,0.0" style="fill:none;stroke:rgb(192, 192, 192);stroke-width:4;stroke-linecap:round;" />
	<path d="M43.0,209.0l0.0,-5.0" style="fill:none;stroke:rgb(64, 64, 64);stroke-width:2;" />
	<path d="M43.0,174.0l0.0,-5.0" style="fill:none;stroke:rgb(64, 64, 64);stroke-width:2;" />
	<path d="M43.0,139.0l0.0,-5.0" style="fill:none;stroke:rgb(64, 64, 64);stroke-width:2;" />
	<path d="M34.028171287147416,106.97892311199894l-6.3647573243786155,-8.527942253313086" style="fill:none;stroke:rgb(64, 64, 64);stroke-width:2;" />
	<path d="M20.131789248853238,71.49920363743036l1.0217035171103817,-10.592075188422541" style="fill:none;stroke:rgb(64, 64, 64);stroke-width:2;" />
	<path d="M33.69781897208236,35.89186218518523l7.877440086178922,-7.154150722673876" style="fill:none;stroke:rgb(64, 64, 64);stroke-width:2;" />
	<path d="M67.679381265443,18.653145531943323l10.64123746911389,0.0" style="fill:none;stroke:rgb(64, 64, 64);stroke-width:2;" />
	<path d="M104.42474094173872,28.737711462511243l7.8774400861790355,7.154150722674217" style="fill:none;stroke:rgb(64, 64, 64);stroke-width:2;" />
	<path d="M124.84650723403661,60.90712844900793l1.021703517110268,10.592075188422314" style="fill:none;stroke:rgb(64, 64, 64);stroke-width:2;" />
	<path d="M118.33658603723131,98.45098085868585l-6.364757324378729,8.527942253313086" style="fill:none;stroke:rgb(64, 64, 64);stroke-width:2;" />
	<path d="M103.0,134.0l0.0,5.0" style="fill:none;stroke:rgb(64, 64, 64);stroke-width:2;" />
	<path d="M103.0,169.0l0.0,5.0" style="fill:none;stroke:rgb(64, 64, 64);stroke-width:2;" />
	<path d="M103.0,204.0l0.0,5.0" style="fill:none;stroke:rgb(64, 64, 64);stroke-width:2;" />
	<circle cx="43.0" cy="224.0" r="15.0" stroke="rgb(64, 64, 64)" stroke-width="3" fill="rgb(77, 77, 77)" />
	<text x="34.5" y="231.0" style="fill:rgb(255, 255, 255);font-family:Courier New;font-size:28;">C</text>
	<circle cx="43.0" cy="189.0" r="15.0" stroke="rgb(64, 64, 64)" stroke-width="3" fill="rgb(179, 179, 179)" />
	<text x="34.5" y="196.0" style="fill:rgb(255, 255, 255);font-family:Courier New;font-size:28;">G</text>
	<circle cx="43.0" cy="154.0" r="15.0" stroke="rgb(64, 64, 64)" stroke-width="3" fill="rgb(77, 77, 77)" />
	<text x="34.5" y="161.0" style="fill:rgb(255, 255, 255);font-family:Courier New;font-size:28;">C</text>
	<circle cx="43.0" cy="119.0" r="15.0" stroke="rgb(64, 64, 64)" stroke-width="3" fill="rgb(179, 128, 26)" />
	<text x="34.5" y="126.0" style="fill:rgb(255, 255, 255);font-family:Courier New;font-size:28;">U</text>
	<circle cx="18.691585249916216" cy="86.42990397068479" r="15.0" stroke="rgb(64, 64, 64)" stroke-width="3" fill="rgb(179, 179, 179)" />
	<text x="10.19158935546875" y="93.429931640625" style="fill:rgb(255, 255, 255);font-family:Courier New;font-size:28;">G</text>
	<circle cx="22.593696764900642" cy="45.976428115753265" r="15.0" stroke="rgb(64, 64, 64)" stroke-width="3" fill="rgb(255, 0, 0)" />
	<text x="14.09368896484375" y="52.9764404296875" style="fill:rgb(255, 255, 255);font-family:Courier New;font-size:28;">A</text>
	<circle cx="52.679381265443" cy="18.653145531943323" r="15.0" stroke="rgb(64, 64, 64)" stroke-width="3" fill="rgb(255, 0, 0)" />
	<text x="44.17938232421875" y="25.65313720703125" style="fill:rgb(255, 255, 255);font-family:Courier New;font-size:28;">A</text>
	<circle cx="93.32061873455689" cy="18.653145531943323" r="15.0" stroke="rgb(64, 64, 64)" stroke-width="3" fill="rgb(179, 128, 26)" />
	<text x="84.82061767578125" y="25.65313720703125" style="fill:rgb(255, 255, 255);font-family:Courier New;font-size:28;">U</text>
	<circle cx="123.40630323509959" cy="45.97642811575338" r="15.0" stroke="rgb(64, 64, 64)" stroke-width="3" fill="rgb(179, 128, 26)" />
	<text x="114.90631103515625" y="52.9764404296875" style="fill:rgb(255, 255, 255);font-family:Courier New;font-size:28;">U</text>
	<circle cx="127.3084147500839" cy="86.42990397068479" r="15.0" stroke="rgb(64, 64, 64)" stroke-width="3" fill="rgb(77, 77, 77)" />
	<text x="118.80841064453125" y="93.429931640625" style="fill:rgb(255, 255, 255);font-family:Courier New;font-size:28;">C</text>
	<circle cx="103.0" cy="119.0" r="15.0" stroke="rgb(64, 64, 64)" stroke-width="3" fill="rgb(255, 0, 0)" />
	<text x="94.5" y="126.0" style="fill:rgb(255, 255, 255);font-family:Courier New;font-size:28;">A</text>
	<circle cx="103.0" cy="154.0" r="15.0" stroke="rgb(64, 64, 64)" stroke-width="3" fill="rgb(179, 179, 179)" />
	<text x="94.5" y="161.0" style="fill:rgb(255, 255, 255);font-family:Courier New;font-size:28;">G</text>
	<circle cx="103.0" cy="189.0" r="15.0" stroke="rgb(64, 64, 64)" stroke-width="3" fill="rgb(77, 77, 77)" />
	<text x="94.5" y="196.0" style="fill:rgb(255, 255, 255);font-family:Courier New;font-size:28;">C</text>
	<circle cx="103.0" cy="224.0" r="15.0" stroke="rgb(64, 64, 64)" stroke-width="3" fill="rgb(179, 179, 179)" />
	<text x="94.5" y="231.0" style="fill:rgb(255, 255, 255);font-family:Courier New;font-size:28;">G</text>
</svg>